<?xml version="1.0" encoding="utf-8"?>
<!-- Generator: Adobe Illustrator 21.0.0, SVG Export Plug-In . SVG Version: 6.00 Build 0)  -->
<svg version="1.1" id="Layer_1" xmlns="http://www.w3.org/2000/svg" xmlns:xlink="http://www.w3.org/1999/xlink" x="0px" y="0px"
	 viewBox="0 0 512 512" style="enable-background:new 0 0 512 512;" xml:space="preserve">
<g fill="#aaa">
	<path d="M256,0C114.8,0,0,114.8,0,256s114.8,256,256,256s256-114.8,256-256S397.2,0,256,0z M256,472.6
		c-119.4,0-216.6-97.2-216.6-216.6S136.6,39.4,256,39.4S472.6,136.6,472.6,256S375.4,472.6,256,472.6z"/>
	<path d="M152.5,103.7c-7.3-7.8-19.5-8.4-27.5-1.3c-8.2,7.2-8.9,19.7-1.7,27.8l236.3,258.5c3.8,4.1,9,6.4,14.6,6.4
		c4.9,0,9.6-1.8,13.3-5.1c8-7.3,8.6-19.8,1.3-27.8L152.5,103.7z"/>
	<path d="M355.5,297c0.9,1,2.5,1.1,3.5,0.2c0.2-0.2,0.3-0.3,0.4-0.5c9.6-15,14.7-32.5,14.8-50.3v-29.3c0.1-9.9-7-18.4-16.8-20
		c-12.2-1.8-22.6,8-22.6,19.8v29.4c0,6.7-1.3,13.3-3.8,19.6c-0.7,1.7-0.3,3.7,0.9,5.1L355.5,297z"/>
	<path d="M310,247.1c0.9,1,2.5,1.1,3.5,0.2c0.4-0.4,0.7-0.9,0.8-1.4c0.5-3.2,0.8-6.4,0.8-9.6v-78.8c-0.1-32.6-26.5-59-59.1-59.1
		c-20.6,0-39.7,10.8-50.5,28.4c-1.1,1.9-0.9,4.3,0.6,5.9L310,247.1z"/>
	<path d="M243.2,294c0.7,0.2,1.3-0.2,1.5-0.9c0.2-0.4,0-0.8-0.3-1.2l-44.9-49.4c-0.4-0.5-1.2-0.6-1.7-0.1c-0.3,0.3-0.5,0.7-0.4,1.1
		C200.5,268.3,218.9,288.5,243.2,294z"/>
	<path d="M294.8,374.2h-19.1v-21.8c5.2-0.9,10.4-2.2,15.4-3.8c1.3-0.4,2-1.8,1.6-3.1c-0.1-0.3-0.3-0.7-0.5-0.9L266.3,316
		c-1-1.1-2.5-1.7-4-1.6c-2.1,0.2-4.2,0.3-6.2,0.3c-44.3,0-78.8-36.7-78.8-68.3v-29.3c0.1-10.8-8.4-19.8-19.2-20.2
		c-10.8-0.3-19.8,8.2-20.2,19c0,0.2,0,0.5,0,0.7v29.8c0,28.8,13.5,56.1,37.9,77.1c17.3,14.8,38.2,24.8,60.6,28.8v21.8h-19.1
		c-10.6,0-19.7,8.1-20.2,18.7c-0.5,10.9,7.9,20.1,18.7,20.6c0.3,0,0.6,0,0.9,0h78.8c10.9,0,19.7-8.8,19.7-19.7c0-0.3,0-0.6,0-1
		C314.6,382.3,305.4,374.2,294.8,374.2z"/>
</g>
</svg>
