<svg id="Layer_1" data-name="Layer 1" xmlns="http://www.w3.org/2000/svg" viewBox="0 0 118.38 122.88"><defs><style>.cls-1{fill:#d8453e;fill-rule:evenodd;}</style></defs><title>screen-recorder</title><path d="M118.38,77v41.87a4,4,0,0,1-4,4H74.5v-9.27h34.63V77ZM81.53,90.36l5,1.49a9.13,9.13,0,0,1-1.57,3.49,6.88,6.88,0,0,1-2.67,2.11,10,10,0,0,1-4,.71,11.76,11.76,0,0,1-4.88-.86,7.78,7.78,0,0,1-3.27-3.06,10.28,10.28,0,0,1-1.38-5.58q0-4.55,2.41-7a9.26,9.26,0,0,1,6.85-2.44,9.25,9.25,0,0,1,5.44,1.41,8.17,8.17,0,0,1,2.94,4.3l-5,1.1a4.43,4.43,0,0,0-.55-1.22,3.21,3.21,0,0,0-2.71-1.34,3.36,3.36,0,0,0-3,1.54,6.7,6.7,0,0,0-.78,3.6q0,3,.93,4.17a3.63,3.63,0,0,0,5,.21,5.42,5.42,0,0,0,1.23-2.64ZM51.27,79.54H66.41v3.91H57v2.91h8.77V90.1H57v3.6H66.7v4.14H51.27V79.54ZM31.88,97.86V79.54h9.43a13.79,13.79,0,0,1,4,.45,4.3,4.3,0,0,1,2.23,1.66,5.06,5.06,0,0,1,.85,3,5.18,5.18,0,0,1-.65,2.63A4.85,4.85,0,0,1,46,89.05a6.82,6.82,0,0,1-2,.72,6,6,0,0,1,1.48.67,6.57,6.57,0,0,1,.9,1,7,7,0,0,1,.79,1.14l2.75,5.28H43.51l-3-5.58a4.33,4.33,0,0,0-1-1.41,2.43,2.43,0,0,0-1.39-.43h-.5v7.42l-5.69,0ZM37.57,87H40a9.36,9.36,0,0,0,1.5-.25,1.49,1.49,0,0,0,.91-.58,1.86,1.86,0,0,0-.2-2.43,3.48,3.48,0,0,0-2.11-.47H37.58V87Zm37-77.8V0h39.86a4,4,0,0,1,4,4V45.9H109.1V9.18ZM9.28,45.84H0V4A4,4,0,0,1,4,0h39.5V9.29H9.28V45.84Zm34.14,67.79v9.25H4a4,4,0,0,1-4-4V77H9.28v36.66H43.42Z"/><path class="cls-1" d="M81.78,46.69c0,11.77-10.82,22.58-22.59,22.58S36.6,58.46,36.6,46.69c0-14.6,11.23-21.93,22.48-22s22.7,7.28,22.7,22ZM59.19,35.46A11.23,11.23,0,1,1,48,46.69,11.22,11.22,0,0,1,59.19,35.46Z"/></svg>