<?xml version="1.0" encoding="utf-8"?>
<!-- Generator: Adobe Illustrator 24.1.1, SVG Export Plug-In . SVG Version: 6.00 Build 0)  -->
<svg version="1.1" id="Layer_1" xmlns="http://www.w3.org/2000/svg" xmlns:xlink="http://www.w3.org/1999/xlink" x="0px" y="0px"
	 viewBox="0 0 512 512" style="enable-background:new 0 0 512 512;" xml:space="preserve">
<style type="text/css">
	.st0{fill:#aaa;}
</style>
<g>
	<path class="st0" d="M383.8,347.8l-51.2-51.2L164,128l-51.2-51.2L69.3,33.1c-10-10-26.3-10-36.3,0s-10,26.3,0,36.3L46.8,83l45,45
		l239,239l37.4,37.4l74.2,74.5c9.9,10,26.1,10.1,36.2,0.1l0.1-0.1c10-9.9,10.1-26.1,0.1-36.2l-0.1-0.1L383.8,347.8z"/>
	<path class="st0" d="M307.1,383.9H76.8c-14.1,0-25.6-11.5-25.6-25.6V153.6c0.1-7.9,3.9-15.2,10.2-20L25.6,97.3
		C9.5,111.7,0.3,132.1,0,153.6v204.7c0,42.4,34.4,76.8,76.8,76.8h230.3c15.1,0,29.9-4.5,42.5-13l-38.9-38.1H307.1z"/>
	<path class="st0" d="M486.2,131.9c-15.9-7.2-34.5-4.1-47.3,7.7l-55,51.2v-37.1c0-42.4-34.4-76.8-76.8-76.8H149.2l51.2,51.2h106.7
		c14.1,0,25.6,11.5,25.6,25.6v106.7l120.8,120.8c4.9,1.8,10.1,2.8,15.4,2.8c6.1,0,12.1-1.3,17.7-3.8c15.4-6.2,25.6-21.2,25.6-37.9
		V169.8C511.9,153,501.7,138,486.2,131.9z M460.6,322.5L388.7,256l71.9-66.5V322.5z"/>
</g>
</svg>
