<?xml version="1.0" encoding="UTF-8" standalone="no"?>
<svg
   fill="#fff"
   stroke="#fff"
   width="700pt"
   height="700pt"
   version="1.1"
   viewBox="0 0 700 700"
   id="svg141"
   sodipodi:docname="window.svg"
   inkscape:version="1.2 (dc2aedaf03, 2022-05-15)"
   xmlns:inkscape="http://www.inkscape.org/namespaces/inkscape"
   xmlns:sodipodi="http://sodipodi.sourceforge.net/DTD/sodipodi-0.dtd"
   xmlns="http://www.w3.org/2000/svg"
   xmlns:svg="http://www.w3.org/2000/svg">
  <sodipodi:namedview
     id="namedview143"
     pagecolor="#ffffff"
     bordercolor="#000000"
     borderopacity="0.25"
     inkscape:showpageshadow="2"
     inkscape:pageopacity="0.0"
     inkscape:pagecheckerboard="0"
     inkscape:deskcolor="#d1d1d1"
     inkscape:document-units="pt"
     showgrid="false"
     inkscape:zoom="1.1003571"
     inkscape:cx="466.21227"
     inkscape:cy="196.7543"
     inkscape:window-width="1896"
     inkscape:window-height="2096"
     inkscape:window-x="15"
     inkscape:window-y="15"
     inkscape:window-maximized="1"
     inkscape:current-layer="svg141" />
  <defs
     id="defs65" />
  <path
     d="m 203.59248,241.57548 h -61.598 v -5.6016 h 61.602 z m 140,81.199 h -95.199 v -56 h 95.199 z m -5.5977,-50.398 h -84 v 44.801 h 84 z m -196,-47.602 h 61.602 v -5.6016 l -61.602,0.004 z m 50.398,184.8 h 22.398 v -22.398 h -22.398 z m -50.398,-151.2 h 50.398 v -5.6016 h -50.398 z m 0,50.398 v 5.6016 h 61.602 v -5.6016 z m 459.2,-207.2 v 504 H 97.194776 v -504 z m -72.801,28 h 44.801 v -5.6016 h -44.801 z m -39.199,0 h 28 v -5.6016 h -28 z m -39.199,0 h 28 v -5.6016 h -28 z m -313.6,5.6016 h 39.199 v -11.203 h -39.199 z m 442.4,16.797 h -459.2 v 431.2 h 459.2 z m -436.8,50.402 v 5.6016 h 56 v -5.6016 z m 0,128.8 h 67.199 v -5.6016 h -67.199 z m 16.801,140 h -22.398 v 22.398 h 22.398 z m 5.5977,22.398 h 22.398 v -22.398 h -22.398 z m -5.5977,-50.398 h -22.398 v 22.398 h 22.398 z m 5.5977,22.398 h 22.398 v -22.398 h -22.398 z m 0,-28 h 22.398 v -22.398 h -22.398 z m 28,56 h 22.398 v -22.398 h -22.398 z m 0,-28 h 22.398 v -22.398 h -22.398 z m -28,-56 h 22.398 v -22.398 h -22.398 z m 28,28 h 22.398 v -22.398 h -22.398 z m 257.6,5.6016 h -95.199 v -84 h 95.199 z m -5.6016,-78.402 h -84 v 72.801 h 84 z m -229.6,-184.8 h -78.402 v 11.199 h 78.398 z m 39.199,369.6 h 84 v 16.801 h 5.6016 v -22.398 l -95.203,-0.004 v 22.398 h 5.6016 z m 196,-198.8 h -95.199 v -123.2 h 95.199 z m -5.6016,-117.6 h -84 v 112 h 84 z m -100.8,302.4 h -95.199 v -106.4 h 95.199 z m -5.5977,-100.8 h -84 v 95.199 h 84 z m 5.5977,-14 h -95.199 v -89.598 h 95.199 z m -5.5977,-84 h -84 v 78.398 h 84 z m 112,165.2 h -95.199 v -50.398 h 95.199 z m -5.6016,-44.797 h -84 v 39.199 h 84 z m -100.8,-198.8 h -95.199 v -89.602 h 95.199 z m -5.5977,-84 h -84 v 78.398 h 84 z m 218.4,84 h -95.199 v -89.602 h 95.199 z m -5.5977,-84 h -84 v 78.398 h 84 z m -190.4,341.6 h 84 v 50.398 h 5.6016 v -55.996 h -95.199 v 56 h 5.6016 z m 196,-95.199 h -95.199 v -44.801 h 95.199 z m -5.5977,-39.199 h -84 v 33.602 h 84 z m -392,5.6016 h -22.398 v 22.398 h 22.398 z m 397.6,-19.602 h -95.199 v -100.8 h 95.199 z m -5.5977,-95.199 h -84 v 89.602 h 84 z m -392,142.8 h -22.398 v 22.398 h 22.398 z m 39.199,-128.8 h -61.602 v 11.199 h 61.602 z m 268.8,246.4 h 84 v 33.602 h 5.6016 v -39.199 h -95.203 v 39.199 h 5.6016 z m -268.8,-173.6 h -61.602 v 11.199 h 61.602 z m 252,-140 h -95.199 v -50.398 h 95.199 z m -5.6016,-44.801 h -84 v 39.199 h 84 z m 112,344.4 h -95.199 v -89.602 h 95.199 z m -5.5977,-84 h -84 v 78.398 h 84 z"
     id="path67" />
</svg>
