<?xml version="1.0" encoding="UTF-8" standalone="no"?>
<svg
   fill="#fff"
   stroke="#fff"
   width="700pt"
   height="700pt"
   version="1.1"
   viewBox="0 0 700 700"
   id="svg141"
   sodipodi:docname="window-and-selfie.svg"
   inkscape:version="1.2 (dc2aedaf03, 2022-05-15)"
   xmlns:inkscape="http://www.inkscape.org/namespaces/inkscape"
   xmlns:sodipodi="http://sodipodi.sourceforge.net/DTD/sodipodi-0.dtd"
   xmlns="http://www.w3.org/2000/svg"
   xmlns:svg="http://www.w3.org/2000/svg">
  <sodipodi:namedview
     id="namedview143"
     pagecolor="#ffffff"
     bordercolor="#000000"
     borderopacity="0.25"
     inkscape:showpageshadow="2"
     inkscape:pageopacity="0.0"
     inkscape:pagecheckerboard="0"
     inkscape:deskcolor="#d1d1d1"
     inkscape:document-units="pt"
     showgrid="false"
     inkscape:zoom="1.1003571"
     inkscape:cx="460.3051"
     inkscape:cy="176.76079"
     inkscape:window-width="1896"
     inkscape:window-height="2096"
     inkscape:window-x="15"
     inkscape:window-y="15"
     inkscape:window-maximized="1"
     inkscape:current-layer="svg141" />
  <defs
     id="defs65" />
  <path
     d="M 115.62918,150.16539 H 72.556743 v -3.96186 h 43.075237 z m 97.89508,57.42981 H 146.9563 v -39.60726 h 66.56796 z m -3.91419,-35.64512 h -58.73706 v 31.68652 h 58.73706 z M 72.556954,138.2825 h 43.075236 v -3.96186 l -43.075236,0.003 z m 35.240826,130.70394 h 15.66181 V 253.14496 H 107.79778 Z M 72.556954,162.04686 H 107.79778 V 158.085 H 72.556954 Z m 0,35.64511 v 3.96186 h 43.075236 v -3.96186 z M 393.65281,51.145127 V 407.61043 H 41.230525 V 51.145127 Z m -50.90614,19.803629 h 31.32713 v -3.961857 h -31.32713 z m -27.40992,0 h 19.57902 v -3.961857 h -19.57902 z m -27.40992,0 h 19.57901 V 66.986899 H 287.92683 Z M 68.641848,74.910613 H 96.051772 V 66.98704 H 68.641848 Z M 377.9903,86.790668 H 56.89444 V 391.76654 H 377.9903 Z M 72.557654,122.4386 v 3.96186 h 39.158026 v -3.96186 z m 0,91.0967 h 46.988936 v -3.96186 H 72.557654 Z m 11.74811,99.01813 H 68.64395 v 15.8415 h 15.661814 z m 3.914192,15.8415 h 15.661814 v -15.8415 H 88.219956 Z M 84.305764,292.74981 H 68.64395 v 15.84148 h 15.661814 z m 3.914192,15.84148 H 103.88177 V 292.74981 H 88.219956 Z m 0,-19.80362 H 103.88177 V 272.94618 H 88.219956 Z m 19.579014,39.60726 h 15.66181 v -15.8415 h -15.66181 z m 0,-19.80364 h 15.66181 V 292.74981 H 107.79897 Z M 88.219956,268.98404 H 103.88177 V 253.14255 H 88.219956 Z m 19.579014,19.80363 h 15.66181 v -15.84149 h -15.66181 z m 180.12695,3.96186 h -66.56796 v -59.41089 h 66.56796 z M 284.009,237.29795 H 225.27194 V 288.7881 H 284.009 Z M 123.46106,106.59401 H 68.638423 v 7.92074 h 54.819847 z m 27.40993,261.4079 h 58.73704 v 11.88287 h 3.91693 V 364.0433 l -66.57076,-0.003 v 15.84148 h 3.91693 z m 137.0531,-140.60577 h -66.56795 v -87.13597 h 66.56795 z m -3.91691,-83.17523 h -58.73705 v 79.21451 h 58.73705 z M 213.52272,358.10009 H 146.95477 V 282.8463 h 66.56795 z m -3.9142,-71.29307 h -58.73704 v 67.33163 h 58.73704 z m 3.9142,-9.90181 h -66.56795 v -63.37019 h 66.56795 z m -3.9142,-59.41088 h -58.73704 v 55.44874 h 58.73704 z m 78.31606,116.8414 h -66.56795 v -35.64511 h 66.56795 z m -3.91691,-31.68368 h -58.73705 v 27.72437 h 58.73705 z M 213.52321,162.04629 H 146.95526 V 98.673263 h 66.56795 z m -3.9142,-59.41089 h -58.73705 v 55.44875 h 58.73705 z m 152.71633,59.41089 H 295.75738 V 98.673263 h 66.56796 z m -3.9142,-59.41089 h -58.73705 v 55.44875 h 58.73705 z M 225.27383,344.23967 h 58.73705 v 35.64511 h 3.91693 v -39.60442 h -66.56795 v 39.60726 h 3.91691 z m 137.05311,-67.33163 h -66.56795 v -31.68652 h 66.56795 z m -3.9142,-27.72437 h -58.73703 v 23.76576 h 58.73703 z M 84.306531,253.14552 H 68.644717 v 15.84149 H 84.306531 Z M 362.32856,239.28158 H 295.7606 V 167.9885 h 66.56796 z m -3.9142,-67.33164 h -58.73705 v 63.37303 h 58.73705 z M 84.308143,272.94845 H 68.64633 v 15.84149 h 15.661813 z m 27.409917,-91.0967 H 68.642828 v 7.92075 h 43.075232 z m 187.95855,174.27194 h 58.73705 v 23.76577 h 3.91692 v -27.72438 h -66.57075 v 27.72438 h 3.91692 z M 111.71806,233.34119 H 68.642828 v 7.92074 H 111.71806 Z M 287.9292,134.32305 H 221.36125 V 98.677938 h 66.56795 z m -3.91692,-31.68652 h -58.73704 v 27.72438 h 58.73704 z m 78.31607,243.58463 h -66.56796 v -63.37302 h 66.56796 z m -3.9142,-59.41088 H 299.6771 v 55.44875 h 58.73705 z"
     id="path67"
     style="stroke-width:0.70325" />
  <path
     d="m 427.21134,320.32303 c -1.43365,0.28795 -2.46337,1.6302 -2.43824,3.17405 v 95.25476 c -0.0104,0.85054 0.29929,1.67006 0.86438,2.27474 0.563,0.60468 1.33318,0.9458 2.13685,0.9458 0.80368,0 1.57177,-0.3411 2.13686,-0.9458 0.563,-0.60468 0.87482,-1.4242 0.86229,-2.27474 v -92.07941 h 87.01084 c 0.80367,0.0111 1.57804,-0.31896 2.14939,-0.91479 0.57136,-0.59583 0.89369,-1.41093 0.89369,-2.26147 0,-0.84833 -0.32231,-1.66343 -0.89369,-2.26147 -0.57135,-0.59583 -1.34572,-0.92584 -2.14939,-0.91257 H 427.7731 c -0.18836,-0.0199 -0.37672,-0.0199 -0.563,0 z m 162.01483,0 c -1.6576,0.16391 -2.87355,1.71877 -2.71866,3.47304 0.15487,1.752 1.62406,3.04113 3.28166,2.87721 h 87.01084 v 92.07941 h -0.002 c -0.0104,0.85054 0.30138,1.67006 0.86438,2.27474 0.56508,0.60468 1.33318,0.9458 2.13685,0.9458 0.80367,0 1.57386,-0.3411 2.13686,-0.9458 0.563,-0.60468 0.87482,-1.4242 0.86437,-2.27474 v -95.25476 c 0,-1.752 -1.34363,-3.17405 -3.00123,-3.17405 h -90.01122 c -0.18836,-0.0199 -0.37672,-0.0199 -0.563,0 z m -35.44085,53.97808 c -26.47722,0 -48.00491,22.78312 -48.00491,50.80216 0,13.85472 7.62256,25.2701 16.03379,34.03463 -25.77214,14.12009 -46.03538,43.43932 -46.03538,77.09857 l -0.002,-0.002 c 0,1.75427 1.34364,3.17626 3.00124,3.17626 h 150.01869 -0.002 c 1.6576,0 3.00123,-1.42199 3.00123,-3.17626 0,-33.65811 -20.26324,-62.97962 -46.03538,-77.09857 8.41123,-8.76453 16.03378,-20.18047 16.03378,-34.03463 0,-28.01904 -21.52768,-50.80216 -48.00491,-50.80216 z m 0,6.35013 c 23.23308,0 42.00417,19.8635 42.00417,44.45203 0,12.7184 -8.07637,24.12754 -16.9714,32.54618 -0.75556,0.71321 -1.12182,1.78302 -0.96902,2.84398 0.15069,1.06096 0.79741,1.96911 1.72034,2.41428 24.63736,11.82364 44.6311,39.02956 45.94323,70.15251 H 482.05726 c 1.31224,-31.12238 21.30373,-58.33001 45.94323,-70.15251 h -0.002 c 0.92299,-0.4452 1.56968,-1.35332 1.72034,-2.41428 0.15069,-1.06096 -0.21347,-2.13077 -0.96901,-2.84398 -8.89504,-8.41694 -16.9714,-19.82608 -16.9714,-32.54618 0,-24.58796 18.77109,-44.45203 42.00416,-44.45203 z M 427.39993,491.68067 c -1.54664,0.20599 -2.68726,1.62799 -2.62656,3.27589 v 95.25476 -0.002 c 0,1.75427 1.34363,3.17625 3.00123,3.17625 h 90.01122 c 0.80367,0.0111 1.57804,-0.31673 2.14939,-0.91478 0.57136,-0.59583 0.89369,-1.41093 0.89369,-2.26147 0,-0.84833 -0.32231,-1.66343 -0.89369,-2.26147 -0.57135,-0.59583 -1.34572,-0.92584 -2.14939,-0.91257 h -87.01084 v -92.07942 c 0.0356,-0.93468 -0.32022,-1.8362 -0.96902,-2.46526 -0.65086,-0.63127 -1.52992,-0.92805 -2.40474,-0.81068 z m 252.02605,0 c -1.54664,0.20599 -2.68517,1.62799 -2.62656,3.27589 v 92.07941 h -87.01084 0.002 c -0.80367,-0.0133 -1.57803,0.31673 -2.14939,0.91257 -0.57136,0.59804 -0.89368,1.41314 -0.89368,2.26147 0,0.85054 0.3223,1.66564 0.89368,2.26147 0.57136,0.59805 1.34572,0.92584 2.14939,0.91479 h 90.01122 c 1.6576,0 3.00123,-1.42199 3.00123,-3.17626 v -95.25476 0.002 c 0.0335,-0.93469 -0.3223,-1.8362 -0.9711,-2.46526 -0.65087,-0.63127 -1.52992,-0.92805 -2.40475,-0.81068 z"
     id="path1209"
     style="stroke-width:8.251;stroke-dasharray:none" />
  <rect
     style="fill:#000000;stroke-width:0.75"
     id="rect1638"
     width="146.34464"
     height="155.71274"
     x="198.94589"
     y="-195.4767" />
</svg>
